<?xml version="1.0" encoding="utf-8"?>
<!-- Generator: Adobe Illustrator 22.1.0, SVG Export Plug-In . SVG Version: 6.00 Build 0)  -->
<svg version="1.1" id="Capa_1" xmlns="http://www.w3.org/2000/svg" xmlns:xlink="http://www.w3.org/1999/xlink" x="0px" y="0px"
	 viewBox="0 0 73.2 73.2" style="enable-background:new 0 0 73.2 73.2;" xml:space="preserve">
<style type="text/css">
	.st0{fill:#FFFFFF;}
</style>
<g>
	<g id="Navigation">
		<g>
			<path class="st0" d="M4.2,14.4h64.7c2.3,0,4.2-1.9,4.2-4.3c0-2.4-1.9-4.3-4.2-4.3H4.2C1.9,5.8,0,7.7,0,10.1
				C0,12.5,1.9,14.4,4.2,14.4z M68.9,32.3H4.2c-2.3,0-4.2,1.9-4.2,4.3c0,2.4,1.9,4.3,4.2,4.3h64.7c2.3,0,4.2-1.9,4.2-4.3
				C73.2,34.2,71.3,32.3,68.9,32.3z M68.9,58.7H4.2c-2.3,0-4.2,1.9-4.2,4.3c0,2.4,1.9,4.3,4.2,4.3h64.7c2.3,0,4.2-1.9,4.2-4.3
				C73.2,60.7,71.3,58.7,68.9,58.7z"/>
		</g>
	</g>
</g>
</svg>
